<svg xmlns="http://www.w3.org/2000/svg" width="1024" height="1024" viewBox="0 0 1024 1024">
<g>
<path d="M 580.12 504.89 C574.80,506.97 573.83,507.00 501.62,506.81 C461.40,506.71 425.94,506.46 422.81,506.26 L 417.12 505.90 L 417.31 419.95 L 417.50 334.00 L 503.00 334.02 C583.91,334.03 588.91,334.13 596.10,335.95 C610.70,339.63 626.22,348.70 638.04,360.47 C645.58,367.97 653.17,381.03 657.03,393.09 C661.77,407.92 661.51,429.01 656.40,444.77 C651.59,459.58 636.51,480.61 627.43,485.14 C624.99,486.36 623.00,487.72 623.00,488.18 C623.00,488.63 622.06,489.00 620.91,489.00 C619.66,489.00 618.60,489.80 618.30,490.98 C617.82,492.80 612.16,494.87 609.61,494.15 C609.11,494.02 607.54,495.02 606.11,496.39 C603.53,498.85 601.25,499.62 593.50,500.63 C591.30,500.92 588.60,501.52 587.50,501.97 C586.40,502.42 583.08,503.73 580.12,504.89 ZM 591.50 495.59 C617.28,489.60 633.80,475.19 642.74,450.89 C645.27,444.02 645.47,442.40 645.46,428.00 C645.46,413.02 645.35,412.22 642.29,404.24 C635.96,387.70 625.84,375.15 612.41,367.18 C604.82,362.67 599.83,360.70 590.00,358.30 C582.74,356.54 536.43,355.95 466.25,356.73 L 429.00 357.15 L 429.00 496.98 L 467.75 497.30 C544.17,497.93 583.80,497.39 591.50,495.59 ZM 354.24 795.92 C340.53,793.57 330.71,788.71 321.14,779.57 C310.73,769.62 304.58,758.65 302.03,745.50 C301.16,741.02 300.96,683.49 301.22,518.50 L 301.50 345.04 L 301.50 517.50 C301.50,694.43 301.75,737.36 302.80,741.00 C303.52,743.47 304.55,747.18 305.09,749.24 C305.63,751.29 306.39,752.93 306.79,752.87 C309.04,752.53 309.81,753.40 310.37,756.88 C310.80,759.62 311.58,760.92 312.99,761.29 C314.31,761.63 315.00,762.65 315.00,764.26 C315.00,768.00 320.52,774.95 324.05,775.66 C325.70,775.99 327.33,776.72 327.68,777.28 C328.07,777.93 327.79,778.00 326.90,777.48 C326.13,777.03 326.36,777.63 327.40,778.83 C328.45,780.02 330.34,781.00 331.60,781.00 C332.86,781.00 334.54,781.93 335.34,783.08 C336.14,784.22 338.00,785.29 339.47,785.45 C340.94,785.61 342.65,786.25 343.27,786.87 C343.89,787.49 345.32,788.02 346.45,788.04 C347.58,788.05 349.62,788.75 351.00,789.58 C353.03,790.80 356.12,791.00 367.34,790.60 C380.21,790.14 381.65,789.88 387.84,786.99 C399.19,781.68 411.67,766.51 415.48,753.41 C418.01,744.73 418.15,739.98 418.33,661.01 C418.49,592.94 418.61,588.51 420.24,588.19 C421.20,588.01 423.24,588.75 424.78,589.84 C426.31,590.93 429.22,592.14 431.25,592.52 C433.27,592.90 435.45,593.84 436.09,594.60 C436.72,595.37 437.63,596.00 438.09,596.00 C438.56,596.00 440.91,597.39 443.32,599.08 L 447.69 602.17 L 467.59 603.11 C478.54,603.63 489.41,604.31 491.75,604.63 C494.42,604.99 496.00,604.82 496.00,604.16 C496.00,603.51 497.64,603.30 500.25,603.60 C502.59,603.87 505.96,604.09 507.75,604.08 C509.54,604.08 512.80,604.08 515.00,604.08 C517.20,604.09 520.80,604.08 523.00,604.07 C525.20,604.06 529.25,604.04 532.00,604.03 C534.75,604.02 538.24,604.00 539.75,603.99 C543.40,603.96 588.85,601.95 596.50,601.47 C602.20,601.12 606.41,600.53 620.73,598.04 C626.28,597.08 642.85,591.98 654.81,587.56 C666.84,583.11 688.36,570.16 700.16,560.25 C710.49,551.58 721.21,540.49 727.31,532.18 C735.73,520.69 745.42,500.79 751.51,482.50 C754.62,473.15 757.25,465.05 757.36,464.50 C757.47,463.95 757.94,462.88 758.42,462.12 C758.89,461.36 759.78,458.21 760.39,455.12 C761.53,449.33 763.04,448.14 764.11,452.19 C764.70,454.45 764.73,454.44 765.47,451.73 C765.89,450.20 767.15,448.31 768.27,447.53 C768.97,447.04 769.42,446.63 769.70,445.45 C769.56,448.52 769.36,451.27 769.08,453.56 C763.18,501.93 743.62,539.29 708.50,569.30 C687.02,587.66 663.44,599.54 634.50,606.58 C613.08,611.80 608.11,612.02 531.57,611.32 L 461.00 610.67 L 461.00 663.20 C461.00,721.42 460.58,726.73 454.90,740.08 C447.27,758.00 434.45,770.71 413.27,781.37 C391.07,792.53 367.87,798.25 354.24,795.92 ZM 765.25 385.65 C765.93,388.73 766.55,391.85 767.10,395.00 C768.65,403.87 769.64,417.96 769.85,430.82 C769.81,429.44 769.76,427.94 769.72,426.30 C769.27,411.35 767.86,398.10 765.25,385.65 ZM 720.69 300.35 C726.60,306.72 732.04,313.22 736.11,318.97 C737.60,321.08 739.05,323.23 740.45,325.41 C734.98,317.18 728.08,308.47 720.69,300.35 ZM 301.57 298.21 L 301.58 297.50 L 303.89 289.00 C305.96,281.39 309.30,273.92 313.52,267.16 C309.24,274.06 305.88,281.70 303.85,289.50 L 301.57 298.21 Z" fill="rgba(2,19,116,1)"/>
<path d="M 351.00 789.58 C349.62,788.75 347.58,788.05 346.45,788.04 C345.32,788.02 343.89,787.49 343.27,786.87 C342.65,786.25 340.94,785.61 339.47,785.45 C338.00,785.29 336.14,784.22 335.34,783.08 C334.54,781.93 332.86,781.00 331.60,781.00 C330.34,781.00 328.45,780.02 327.40,778.83 C326.36,777.63 326.13,777.03 326.90,777.48 C327.79,778.00 328.07,777.93 327.68,777.28 C327.33,776.72 325.70,775.99 324.05,775.66 C320.52,774.95 315.00,768.00 315.00,764.26 C315.00,762.65 314.31,761.63 312.99,761.29 C311.58,760.92 310.80,759.62 310.37,756.88 C309.81,753.40 309.04,752.53 306.79,752.87 C306.39,752.93 305.63,751.29 305.09,749.24 C304.55,747.18 303.52,743.47 302.80,741.00 C301.75,737.36 301.50,694.43 301.50,517.50 L 301.50 506.10 C301.63,506.48 301.80,506.62 302.00,506.50 C302.64,506.10 303.01,509.74 303.02,516.69 C303.04,528.47 303.38,534.54 305.36,558.00 C306.17,567.53 306.33,574.45 305.78,575.96 C305.29,577.32 305.18,581.16 305.54,584.49 C306.71,595.42 306.94,604.71 307.82,673.50 C308.66,739.44 308.75,741.71 310.88,748.46 C314.11,758.75 319.14,766.97 326.26,773.61 C333.47,780.33 340.98,784.71 348.39,786.53 C354.79,788.10 365.11,788.27 371.00,786.91 C385.28,783.63 398.46,772.63 405.69,757.98 C407.99,753.32 410.35,746.83 410.94,743.57 C411.63,739.69 412.00,708.43 412.00,653.38 C412.00,589.12 412.28,568.94 413.19,568.38 C413.92,567.93 415.20,568.76 416.44,570.48 C423.75,580.58 436.30,593.92 443.18,598.99 C440.82,597.34 438.55,596.00 438.09,596.00 C437.63,596.00 436.72,595.37 436.09,594.60 C435.45,593.84 433.27,592.90 431.25,592.52 C429.22,592.14 426.31,590.93 424.78,589.84 C423.24,588.75 421.20,588.01 420.24,588.19 C418.61,588.51 418.49,592.94 418.33,661.01 C418.15,739.98 418.01,744.73 415.48,753.41 C411.67,766.51 399.19,781.68 387.84,786.99 C381.65,789.88 380.21,790.14 367.34,790.60 C356.12,791.00 353.03,790.80 351.00,789.58 ZM 754.09 350.96 C764.22,374.06 768.84,396.89 769.72,426.30 C770.28,445.43 770.24,446.15 768.27,447.53 C767.15,448.31 765.89,450.20 765.47,451.73 C764.73,454.44 764.70,454.45 764.11,452.19 C763.04,448.14 761.53,449.33 760.39,455.12 C759.78,458.21 758.89,461.36 758.42,462.12 C757.94,462.88 757.47,463.95 757.36,464.50 C757.25,465.05 754.62,473.15 751.51,482.50 C749.55,488.40 747.21,494.46 744.66,500.36 C754.41,477.18 759.90,448.43 760.07,419.01 C760.14,405.93 760.77,402.51 763.10,402.48 C765.28,402.45 764.63,388.80 762.10,381.29 C760.96,377.92 759.74,372.12 759.38,368.41 C758.95,364.01 757.03,357.86 754.09,350.96 ZM 606.73 600.36 C602.42,601.00 599.69,601.28 596.50,601.47 C588.85,601.95 543.40,603.96 539.75,603.99 C538.24,604.00 534.75,604.02 532.00,604.03 C529.25,604.04 525.20,604.06 523.00,604.07 C520.80,604.08 517.20,604.09 515.00,604.08 C512.80,604.08 509.54,604.08 507.75,604.08 C505.96,604.09 502.59,603.87 500.25,603.60 C497.64,603.30 496.00,603.51 496.00,604.16 C496.00,604.82 494.42,604.99 491.75,604.63 C489.41,604.31 478.54,603.63 467.59,603.11 L 447.69 602.17 L 444.21 599.71 L 447.75 602.10 L 525.13 601.67 C568.56,601.43 598.69,600.94 606.73,600.36 ZM 301.50 327.26 L 301.50 298.50 L 303.85 289.50 C308.57,271.41 320.39,254.19 334.32,245.12 C338.17,242.61 344.24,239.67 349.18,237.70 C345.52,239.25 341.80,241.25 340.79,242.54 C339.72,243.90 338.24,245.00 337.48,245.00 C336.72,245.00 331.92,249.26 326.80,254.48 C313.30,268.23 311.00,270.94 311.00,273.12 C311.00,274.19 310.35,276.63 309.55,278.54 C306.37,286.14 303.00,303.16 303.00,311.58 C303.00,316.53 302.59,320.00 302.00,320.00 C301.80,320.00 301.64,322.44 301.50,327.26 ZM 580.12 504.89 C583.08,503.73 586.40,502.42 587.50,501.97 C588.60,501.52 591.30,500.92 593.50,500.63 C601.25,499.62 603.53,498.85 606.11,496.39 C607.54,495.02 609.11,494.02 609.61,494.15 C612.16,494.87 617.82,492.80 618.30,490.98 C618.60,489.80 619.66,489.00 620.91,489.00 C622.06,489.00 623.00,488.63 623.00,488.18 C623.00,487.72 624.99,486.36 627.43,485.14 C629.58,484.07 632.06,482.07 634.67,479.45 C622.32,492.74 609.47,499.75 589.46,504.65 C587.03,505.24 584.05,505.64 576.79,505.92 C578.14,505.65 579.04,505.31 580.12,504.89 ZM 301.50 494.92 L 301.50 473.78 C301.64,478.86 301.81,481.30 302.00,481.00 C302.65,479.99 302.92,483.61 302.82,492.00 C302.71,501.61 302.52,503.23 302.00,499.00 L 301.50 494.92 ZM 710.91 550.51 C707.42,553.90 703.77,557.22 700.16,560.25 C696.25,563.53 691.29,567.14 685.95,570.67 C694.77,564.61 703.43,557.66 710.91,550.51 ZM 741.29 507.80 C736.77,517.33 731.86,525.98 727.31,532.18 C725.79,534.25 723.99,536.49 721.97,538.82 C728.71,530.91 733.39,523.35 740.19,510.00 C740.56,509.27 740.93,508.54 741.29,507.80 ZM 690.83 273.46 C700.17,279.76 710.86,289.55 720.69,300.35 C710.69,289.58 699.31,279.18 690.83,273.46 ZM 657.63 440.49 C659.52,433.12 660.45,424.91 660.41,416.86 C660.62,425.14 659.71,432.96 657.63,440.49 ZM 649.16 375.49 C645.78,369.61 641.90,364.31 638.04,360.47 C642.93,365.34 645.77,369.13 649.16,375.49 ZM 740.16 324.98 C742.53,328.51 744.63,331.97 746.40,335.25 C747.28,336.88 748.13,338.50 748.95,340.12 C746.33,335.08 743.36,329.93 740.16,324.98 ZM 644.68 467.15 C647.61,462.91 650.35,458.35 652.56,453.92 C650.39,458.40 647.77,462.79 644.68,467.15 ZM 356.83 235.49 C356.95,235.50 357.05,235.53 357.13,235.58 C357.66,235.91 358.63,235.73 359.29,235.20 C358.63,235.73 357.66,235.91 357.15,235.59 C357.07,235.54 356.96,235.51 356.83,235.49 Z" fill="rgba(13,40,163,1)"/>
<path d="M 591.50 600.91 L 591.50 599.34 C591.50,598.15 591.77,596.91 592.10,596.57 C592.43,596.24 596.64,594.82 601.47,593.43 C611.50,590.52 629.57,583.56 638.77,579.06 C642.21,577.38 645.28,576.00 645.59,576.00 C645.89,576.00 648.22,574.57 650.76,572.82 C653.29,571.08 657.88,568.41 660.94,566.90 C664.00,565.39 670.91,560.29 676.30,555.57 C681.69,550.86 686.53,547.00 687.04,547.00 C687.56,547.00 689.37,545.09 691.06,542.75 C692.75,540.41 696.36,536.14 699.07,533.24 C701.97,530.15 704.00,527.06 704.00,525.73 C704.00,524.41 705.86,521.52 708.45,518.82 C712.61,514.47 712.82,514.00 711.77,511.21 C710.87,508.82 710.98,507.56 712.33,504.72 C713.25,502.78 714.00,500.04 714.00,498.63 C714.00,497.09 714.80,495.64 716.00,495.00 C717.70,494.09 718.00,492.91 718.00,487.09 C718.00,481.72 718.52,479.31 720.42,475.88 C724.14,469.18 724.66,464.66 722.03,462.03 C720.85,460.85 720.07,459.34 720.30,458.69 C720.54,458.03 720.32,456.71 719.82,455.73 C718.30,452.79 718.20,440.67 719.68,439.18 C720.63,438.23 720.84,435.88 720.44,430.68 C719.34,416.18 720.13,399.66 721.98,398.51 C722.39,398.26 722.53,397.00 722.29,395.71 C722.02,394.34 722.49,392.84 723.42,392.07 C726.54,389.48 724.76,384.00 720.80,384.00 C719.47,384.00 719.00,383.22 719.00,381.00 C719.00,379.35 719.50,378.00 720.10,378.00 C720.84,378.00 720.99,376.42 720.57,373.25 C720.23,370.64 719.98,365.80 720.03,362.50 C720.10,356.89 719.87,356.27 716.55,353.05 C714.60,351.16 713.00,348.91 712.99,348.05 C712.97,344.53 707.51,335.17 701.06,327.59 C685.77,309.64 664.27,289.12 651.00,279.82 C627.97,263.70 608.32,255.67 574.05,248.38 C568.58,247.22 574.87,246.03 586.50,246.02 C618.87,246.00 661.50,262.27 692.42,286.44 C699.96,292.33 720.68,313.57 726.33,321.19 C745.05,346.48 756.25,377.30 758.95,411.00 L 759.71 420.50 L 759.92 413.50 C760.09,408.07 760.57,404.91 761.51,403.46 C760.46,405.21 760.12,409.62 760.07,419.01 C759.88,452.66 752.72,485.44 740.19,510.00 C731.56,526.93 726.36,534.54 716.02,545.39 C699.16,563.08 673.85,580.52 654.81,587.56 C642.85,591.98 626.28,597.08 620.73,598.04 C617.30,598.64 611.80,599.60 608.50,600.18 C607.83,600.30 606.25,600.41 603.83,600.53 C604.45,599.72 603.17,599.00 600.50,599.00 C597.64,599.00 596.49,599.63 597.20,600.76 C595.48,600.81 593.57,600.86 591.50,600.91 ZM 724.01 377.02 C724.87,378.62 725.48,378.92 726.29,378.11 C727.09,377.31 726.87,376.62 725.45,375.59 C722.98,373.78 722.52,374.24 724.01,377.02 ZM 447.62 602.01 L 492.28 601.85 L 447.75 602.10 L 447.62 602.01 ZM 416.44 570.48 C420.51,576.11 426.25,582.78 431.70,588.44 C426.25,582.78 420.53,576.13 416.44,570.48 Z" fill="rgba(13,217,252,1)"/>
<path d="M 325.22 772.61 C318.65,766.15 313.95,758.24 310.88,748.46 C308.75,741.71 308.66,739.44 307.82,673.50 C306.94,604.71 306.71,595.42 305.54,584.49 C305.18,581.16 305.29,577.32 305.78,575.96 C306.33,574.45 306.17,567.53 305.36,558.00 C303.38,534.54 303.04,528.47 303.02,516.69 C303.01,509.74 302.64,506.10 302.00,506.50 C301.37,506.89 301.06,504.63 301.16,500.31 L 301.33 493.50 L 302.00 499.00 C302.52,503.23 302.71,501.61 302.82,492.00 C302.92,483.61 302.65,479.99 302.00,481.00 C301.37,481.98 301.03,454.08 301.02,401.25 C301.01,347.74 301.34,320.00 302.00,320.00 C302.59,320.00 303.00,316.53 303.00,311.58 C303.00,303.16 306.37,286.14 309.55,278.54 C310.35,276.63 311.00,274.19 311.00,273.12 C311.00,270.94 313.30,268.23 326.80,254.48 C331.92,249.26 336.72,245.00 337.48,245.00 C338.24,245.00 339.72,243.90 340.79,242.54 C342.80,239.98 355.51,234.58 357.15,235.59 C357.66,235.91 358.63,235.73 359.29,235.20 C362.97,232.23 379.06,231.86 479.50,232.45 C583.94,233.07 591.18,233.25 604.35,235.56 C630.99,240.25 665.27,254.24 682.50,267.47 C684.70,269.16 688.45,271.86 690.83,273.46 C704.33,282.57 725.16,303.50 736.11,318.97 C748.19,336.05 758.32,357.57 759.38,368.41 C759.74,372.12 760.96,377.92 762.10,381.29 C764.63,388.80 765.28,402.45 763.10,402.48 C761.06,402.51 760.17,405.60 759.92,413.50 L 759.71 420.50 L 758.95 411.00 C756.25,377.30 745.05,346.48 726.33,321.19 C720.68,313.57 699.96,292.33 692.42,286.44 C664.76,264.82 627.72,249.52 597.05,246.55 C601.70,246.79 605.58,247.14 607.00,247.56 C608.38,247.96 609.21,247.98 608.85,247.58 C608.19,246.85 598.48,244.97 582.50,242.47 C575.43,241.36 555.44,240.98 489.50,240.71 C391.93,240.30 366.60,240.88 357.00,243.78 C337.91,249.53 324.14,261.40 315.56,279.50 C314.71,281.29 313.97,282.61 313.33,283.97 C308.63,293.93 309.00,306.27 309.01,521.70 C309.03,740.87 309.04,742.55 311.06,748.99 C313.85,757.90 318.89,766.09 325.22,772.61 ZM 578.05 246.29 C575.86,246.44 574.20,246.66 573.18,246.92 C573.25,246.88 573.32,246.84 573.39,246.80 C573.85,246.55 575.59,246.38 578.05,246.29 ZM 572.19 247.75 C572.42,247.94 572.94,248.13 573.80,248.33 C572.76,248.10 572.25,247.95 572.19,247.75 Z" fill="rgba(23,66,213,1)"/>
<path d="M 348.39 786.53 C331.93,782.50 316.79,767.27 311.06,748.99 C309.04,742.55 309.03,740.87 309.01,521.70 C309.00,306.27 308.63,293.93 313.33,283.97 C313.97,282.61 314.71,281.29 315.56,279.50 C324.14,261.40 337.91,249.53 357.00,243.78 C366.60,240.88 391.93,240.30 489.50,240.71 C555.44,240.98 575.43,241.36 582.50,242.47 C598.48,244.97 608.19,246.85 608.85,247.58 C609.21,247.98 608.38,247.96 607.00,247.56 C602.67,246.27 575.42,245.66 573.39,246.80 C571.67,247.76 571.72,247.88 574.01,248.37 C608.44,255.71 627.96,263.68 651.00,279.82 C664.27,289.12 685.77,309.64 701.06,327.59 C707.51,335.17 712.97,344.53 712.99,348.05 C713.00,348.91 714.60,351.16 716.55,353.05 C719.87,356.27 720.10,356.89 720.03,362.50 C719.98,365.80 720.23,370.64 720.57,373.25 C720.99,376.42 720.84,378.00 720.10,378.00 C719.50,378.00 719.00,379.35 719.00,381.00 C719.00,383.22 719.47,384.00 720.80,384.00 C724.76,384.00 726.54,389.48 723.42,392.07 C722.49,392.84 722.02,394.34 722.29,395.71 C722.53,397.00 722.39,398.26 721.98,398.51 C720.13,399.66 719.34,416.18 720.44,430.68 C720.84,435.88 720.63,438.23 719.68,439.18 C718.20,440.67 718.30,452.79 719.82,455.73 C720.32,456.71 720.54,458.03 720.30,458.69 C720.07,459.34 720.85,460.85 722.03,462.03 C724.66,464.66 724.14,469.18 720.42,475.88 C718.52,479.31 718.00,481.72 718.00,487.09 C718.00,492.91 717.70,494.09 716.00,495.00 C714.80,495.64 714.00,497.09 714.00,498.63 C714.00,500.04 713.25,502.78 712.33,504.72 C710.98,507.56 710.87,508.82 711.77,511.21 C712.82,514.00 712.61,514.47 708.45,518.82 C705.86,521.52 704.00,524.41 704.00,525.73 C704.00,527.06 701.97,530.15 699.07,533.24 C696.36,536.14 692.75,540.41 691.06,542.75 C689.37,545.09 687.56,547.00 687.04,547.00 C686.53,547.00 681.69,550.86 676.30,555.57 C670.91,560.29 664.00,565.39 660.94,566.90 C657.88,568.41 653.29,571.08 650.76,572.82 C648.22,574.57 645.89,576.00 645.59,576.00 C645.28,576.00 642.21,577.38 638.77,579.06 C629.57,583.56 611.50,590.52 601.47,593.43 C596.64,594.82 592.43,596.24 592.10,596.57 C591.77,596.91 591.50,598.15 591.50,599.34 L 591.50 601.50 L 519.56 601.76 L 447.62 602.01 L 444.06 599.61 C437.50,595.19 424.06,581.01 416.44,570.48 C415.20,568.76 413.92,567.93 413.19,568.38 C412.28,568.94 412.00,589.12 412.00,653.38 C412.00,708.43 411.63,739.69 410.94,743.57 C410.35,746.83 407.99,753.32 405.69,757.98 C398.46,772.63 385.28,783.63 371.00,786.91 C365.11,788.27 354.79,788.10 348.39,786.53 ZM 589.46 504.65 C612.68,498.96 626.27,490.43 640.61,472.54 C656.10,453.23 662.22,433.50 660.00,410.01 C658.77,397.00 656.69,390.11 650.06,377.21 C646.25,369.79 643.36,365.76 638.04,360.47 C626.41,348.89 611.24,339.95 596.10,335.76 C588.69,333.71 586.25,333.64 500.25,333.26 L 412.00 332.87 L 412.00 507.08 L 497.25 506.72 C573.39,506.39 583.24,506.17 589.46,504.65 ZM 324.48 407.60 C325.61,409.33 326.95,409.99 329.27,409.97 C336.80,409.89 338.20,405.67 341.99,371.81 C345.14,343.60 346.30,337.80 350.69,328.16 C358.11,311.88 373.81,297.71 389.50,293.13 C397.27,290.86 412.08,289.00 443.46,286.33 C462.23,284.74 464.68,284.32 466.96,282.33 L 469.50 280.12 L 467.48 278.06 C465.42,275.97 455.51,272.01 452.27,271.99 C451.30,271.98 448.49,271.27 446.03,270.41 C443.57,269.56 439.74,268.48 437.53,268.02 C435.31,267.55 426.30,265.63 417.50,263.74 C394.22,258.73 385.93,257.62 372.50,257.67 C355.56,257.75 345.65,261.35 336.07,270.93 C331.25,275.75 325.65,287.05 322.91,297.50 C319.39,310.91 319.23,353.75 322.52,399.85 C322.74,402.80 323.61,406.29 324.48,407.60 ZM 597.67 601.33 C596.17,599.84 597.19,599.00 600.50,599.00 C604.12,599.00 605.19,600.33 602.42,601.39 C600.35,602.19 598.50,602.16 597.67,601.33 ZM 724.01 377.02 C722.52,374.24 722.98,373.78 725.45,375.59 C726.87,376.62 727.09,377.31 726.29,378.11 C725.48,378.92 724.87,378.62 724.01,377.02 Z" fill="rgba(31,165,253,1)"/>
<path d="M 324.48 407.60 C323.61,406.29 322.74,402.80 322.52,399.85 C319.23,353.75 319.39,310.91 322.91,297.50 C325.65,287.05 331.25,275.75 336.07,270.93 C345.65,261.35 355.56,257.75 372.50,257.67 C385.93,257.62 394.22,258.73 417.50,263.74 C426.30,265.63 435.31,267.55 437.53,268.02 C439.74,268.48 443.57,269.56 446.03,270.41 C448.49,271.27 451.30,271.98 452.27,271.99 C455.51,272.01 465.42,275.97 467.48,278.06 L 469.50 280.12 L 466.96 282.33 C464.68,284.32 462.23,284.74 443.46,286.33 C412.08,289.00 397.27,290.86 389.50,293.13 C373.81,297.71 358.11,311.88 350.69,328.16 C346.30,337.80 345.14,343.60 341.99,371.81 C338.20,405.67 336.80,409.89 329.27,409.97 C326.95,409.99 325.61,409.33 324.48,407.60 Z" fill="rgba(75,192,253,1)"/>
</g>
</svg>